<?xml version="1.0" encoding="iso-8859-1"?>
<!-- Generator: Adobe Illustrator 19.0.0, SVG Export Plug-In . SVG Version: 6.00 Build 0)  -->
<svg version="1.1" id="Layer_1" xmlns="http://www.w3.org/2000/svg" xmlns:xlink="http://www.w3.org/1999/xlink" x="0px" y="0px"
	 viewBox="0 0 512 512" style="enable-background:new 0 0 512 512;" xml:space="preserve">
<g>
	<g>
		<path d="M488.386,118.766L78.185,94.154L62.184,43.241c-3.307-10.52-12.937-17.588-23.964-17.588H8.017
			C3.589,25.653,0,29.242,0,33.67c0,4.428,3.589,8.017,8.017,8.017H38.22c3.988,0,7.472,2.557,8.668,6.362l81.794,260.253
			c3.766,11.981,12.497,21.256,23.381,26.019l-20.88,38.28c-7.206,13.213-6.923,28.828,0.76,41.77
			c3.672,6.184,8.696,11.159,14.575,14.688c-5.993,6.082-9.701,14.424-9.701,23.617c0,18.566,15.104,33.67,33.67,33.67
			s33.67-15.105,33.67-33.67c0-6.462-1.834-12.504-5.003-17.637h233.407c-3.169,5.133-5.003,11.174-5.003,17.637
			c0,18.566,15.105,33.67,33.67,33.67c18.566,0,33.67-15.105,33.67-33.67c0-18.566-15.105-33.67-33.67-33.67H168.249
			c-9.335,0-17.753-4.792-22.518-12.819s-4.942-17.713-0.471-25.908l23.141-42.425c0.181,0.002,0.361,0.011,0.543,0.011
			c1.657,0,3.33-0.097,5.009-0.297l308.358-36.709c16.926-2.016,29.69-16.389,29.69-33.434V143.839
			C512,130.574,501.627,119.56,488.386,118.766z M461.228,435.04c9.725,0,17.637,7.912,17.637,17.637
			c0,9.725-7.912,17.637-17.637,17.637c-9.725,0-17.637-7.912-17.637-17.637C443.591,442.952,451.503,435.04,461.228,435.04z
			 M170.489,435.04c9.725,0,17.637,7.912,17.637,17.637c0,9.725-7.912,17.637-17.637,17.637s-17.637-7.912-17.637-17.637
			C152.852,442.952,160.764,435.04,170.489,435.04z M308.053,124.008l3.691,81.22h-87.706l-18.198-87.352L308.053,124.008z
			 M83.331,110.525l105.924,6.356l18.406,88.347h-94.567L83.331,110.525z M172.057,321.646
			c-12.493,1.486-24.306-6.146-28.079-18.152l-25.845-82.233h92.869l19.465,93.432L172.057,321.646z M246.447,312.79l-19.069-91.529
			h85.095l3.783,83.219L246.447,312.79z M410.455,293.266l-78.236,9.313l-3.696-81.318h81.932V293.266z M410.455,205.228h-82.661
			l-3.648-80.254l86.309,5.178V205.228z M495.967,267.424c0,8.928-6.686,16.457-15.552,17.513l-53.926,6.42v-70.096h69.478V267.424z
			 M495.967,205.228h-69.478v-74.113l60.937,3.656c4.79,0.288,8.542,4.271,8.542,9.068V205.228z"/>
	</g>
</g>
<g>
</g>
<g>
</g>
<g>
</g>
<g>
</g>
<g>
</g>
<g>
</g>
<g>
</g>
<g>
</g>
<g>
</g>
<g>
</g>
<g>
</g>
<g>
</g>
<g>
</g>
<g>
</g>
<g>
</g>
</svg>
